<svg xmlns="http://www.w3.org/2000/svg" xmlns:xlink="http://www.w3.org/1999/xlink" width="500" zoomAndPan="magnify" viewBox="0 0 375 374.999991" height="500" preserveAspectRatio="xMidYMid meet" version="1.0"><defs><g/></defs><g fill="#55996f" fill-opacity="1"><g transform="translate(74.805902, 211.353641)"><g><path d="M 27.101562 -54.46875 C 26.664062 -55.789062 25.960938 -57.902344 25.078125 -60.71875 L 23.230469 -66.261719 C 22.351562 -68.988281 21.382812 -71.628906 20.328125 -74.269531 C 19.625 -76.117188 18.566406 -77.4375 17.246094 -78.316406 C 15.839844 -79.199219 13.902344 -79.636719 11.441406 -79.636719 C 6.953125 -79.636719 3.34375 -78.667969 0.703125 -76.734375 C 4.929688 -70.75 7.214844 -62.917969 7.480469 -53.328125 C 7.480469 -48.398438 6.953125 -41.621094 5.71875 -33 C 5.542969 -32.296875 5.367188 -31.0625 5.105469 -29.304688 C 4.75 -27.542969 4.574219 -26.3125 4.488281 -25.695312 C 4.398438 -24.992188 4.222656 -23.757812 4.046875 -22 C 3.785156 -20.238281 3.695312 -19.007812 3.695312 -18.304688 C 3.695312 -17.597656 3.609375 -16.367188 3.433594 -14.609375 C 3.257812 -12.847656 3.34375 -11.617188 3.519531 -10.910156 C 4.046875 -2.816406 7.65625 1.144531 14.429688 1.144531 C 18.214844 1.230469 21.121094 0 23.144531 -2.640625 C 25.167969 -5.191406 26.222656 -8.359375 26.398438 -12.230469 C 26.398438 -15.398438 25.960938 -18.128906 25.167969 -20.414062 C 23.496094 -18.917969 21.910156 -18.214844 20.328125 -18.214844 C 18.742188 -18.128906 17.6875 -19.007812 17.070312 -20.855469 C 16.367188 -22.617188 16.015625 -24.992188 16.015625 -27.808594 C 15.839844 -34.847656 16.105469 -40.566406 16.632812 -44.964844 C 16.984375 -49.191406 17.335938 -51.917969 17.511719 -52.972656 C 18.566406 -50.6875 19.625 -48.222656 20.589844 -45.582031 C 21.558594 -42.941406 22.527344 -40.039062 23.582031 -36.957031 C 24.640625 -33.792969 25.429688 -31.503906 25.960938 -30.09375 C 27.101562 -27.101562 28.773438 -21.734375 31.0625 -14.078125 C 31.238281 -13.199219 31.503906 -12.054688 31.855469 -10.648438 C 32.207031 -9.238281 32.472656 -8.183594 32.648438 -7.480469 C 32.824219 -6.777344 33.175781 -5.894531 33.527344 -5.015625 C 33.878906 -4.046875 34.230469 -3.257812 34.671875 -2.640625 C 36.253906 -0.0898438 38.984375 1.144531 43.03125 1.144531 C 45.144531 1.144531 47.078125 0.703125 49.015625 -0.265625 C 50.863281 -1.230469 52.269531 -2.726562 53.238281 -4.664062 C 51.125 -6.421875 49.542969 -8.976562 48.3125 -12.496094 C 47.078125 -15.925781 46.285156 -18.832031 46.023438 -21.121094 C 45.757812 -23.40625 45.582031 -25.605469 45.582031 -27.808594 C 45.496094 -30.09375 46.023438 -35.550781 47.078125 -44.261719 C 47.167969 -45.671875 47.957031 -50.160156 49.542969 -57.726562 C 50.863281 -64.765625 51.300781 -69.78125 50.949219 -72.773438 C 50.246094 -77.351562 47.078125 -79.636719 41.359375 -79.636719 C 39.160156 -79.636719 37.3125 -79.375 35.902344 -79.023438 C 34.496094 -78.667969 32.734375 -77.878906 30.625 -76.734375 C 34.847656 -70.839844 37.136719 -63.007812 37.398438 -53.328125 C 37.664062 -41.886719 37.398438 -33.527344 36.695312 -28.421875 C 34.054688 -34.144531 30.886719 -42.855469 27.101562 -54.46875 Z M 27.101562 -54.46875 "/></g></g></g><g fill="#55996f" fill-opacity="1"><g transform="translate(127.691484, 211.353641)"><g><path d="M 26.222656 -8.625 L 26.574219 -8.625 C 26.75 -5.632812 27.632812 -3.257812 29.214844 -1.496094 C 30.710938 0.265625 32.558594 1.144531 34.847656 1.144531 C 38.542969 1.230469 41.183594 0 42.855469 -2.550781 C 44.4375 -5.015625 45.320312 -8.359375 45.496094 -12.40625 C 45.582031 -14.871094 45.144531 -17.160156 44.261719 -19.449219 C 42.503906 -17.863281 40.917969 -17.160156 39.511719 -17.160156 C 36.695312 -17.160156 35.199219 -20.414062 35.109375 -26.925781 C 35.109375 -28.335938 35.023438 -30.269531 35.023438 -32.648438 C 35.023438 -34.933594 35.023438 -36.871094 35.023438 -38.277344 C 35.023438 -39.6875 34.933594 -41.359375 34.847656 -43.382812 C 34.757812 -45.320312 34.671875 -46.902344 34.496094 -48.132812 C 34.320312 -49.367188 34.144531 -50.773438 33.792969 -52.359375 C 33.4375 -53.941406 33.085938 -55.175781 32.648438 -56.054688 C 32.117188 -56.933594 31.589844 -57.902344 30.886719 -58.957031 C 30.183594 -60.015625 29.304688 -60.804688 28.421875 -61.335938 C 27.457031 -61.863281 26.3125 -62.300781 25.078125 -62.652344 C 23.757812 -63.007812 22.351562 -63.183594 20.765625 -63.183594 L 19.976562 -63.183594 C 16.457031 -63.007812 13.289062 -61.511719 10.558594 -58.605469 C 5.808594 -53.589844 2.816406 -45.933594 1.496094 -35.640625 C 0.0898438 -25.605469 0.792969 -16.894531 3.433594 -9.589844 C 6.070312 -2.199219 10.03125 1.320312 15.488281 1.144531 C 20.328125 1.054688 23.933594 -2.199219 26.222656 -8.625 Z M 22.703125 -44.703125 C 25.519531 -44.703125 27.101562 -42.765625 27.367188 -39.070312 C 27.542969 -36.34375 26.75 -33.261719 25.167969 -29.742188 C 23.496094 -26.222656 21.382812 -23.230469 18.917969 -20.765625 C 16.367188 -18.304688 14.078125 -17.160156 12.054688 -17.160156 C 9.152344 -17.160156 7.566406 -19.09375 7.390625 -22.792969 C 7.214844 -25.253906 7.832031 -28.246094 9.238281 -31.679688 C 10.648438 -35.109375 12.582031 -38.101562 15.136719 -40.742188 C 17.597656 -43.382812 20.152344 -44.703125 22.703125 -44.703125 Z M 22.703125 -44.703125 "/></g></g></g><g fill="#55996f" fill-opacity="1"><g transform="translate(171.953439, 211.353641)"><g><path d="M 17.335938 10.207031 C 15.574219 10.207031 14.253906 9.152344 13.289062 6.953125 C 12.320312 4.839844 11.878906 2.464844 11.96875 -0.0898438 C 11.96875 -2.550781 12.230469 -4.839844 12.582031 -6.777344 L 13.289062 -6.777344 C 13.902344 -4.3125 15.222656 -2.375 17.335938 -0.96875 C 19.359375 0.441406 21.734375 1.144531 24.375 1.144531 C 26.839844 1.144531 29.128906 0.617188 31.0625 -0.617188 C 33 -1.847656 34.671875 -3.433594 35.902344 -5.542969 C 37.136719 -7.65625 38.191406 -9.855469 39.070312 -12.230469 C 39.949219 -14.519531 40.566406 -17.160156 41.007812 -19.976562 C 41.359375 -22.792969 41.710938 -25.253906 41.886719 -27.367188 C 42.0625 -29.480469 42.152344 -31.589844 42.238281 -33.703125 C 42.589844 -53.152344 38.367188 -62.917969 29.566406 -63.09375 C 22.351562 -63.09375 17.953125 -58.253906 16.542969 -48.574219 L 15.75 -48.574219 C 15.839844 -50.6875 16.015625 -52.796875 16.191406 -54.910156 C 16.367188 -57.023438 15.925781 -58.957031 14.871094 -60.628906 C 13.816406 -62.214844 12.054688 -63.09375 9.679688 -63.183594 C 7.65625 -63.183594 6.070312 -62.917969 4.929688 -62.566406 C 3.785156 -62.125 2.464844 -61.335938 0.878906 -60.101562 C 4.222656 -54.644531 5.894531 -48.925781 5.984375 -42.855469 C 5.984375 -36.167969 5.367188 -27.984375 4.046875 -18.480469 C 3.785156 -16.632812 3.257812 -13.199219 2.464844 -8.097656 C 1.582031 -2.992188 0.96875 1.496094 0.527344 5.367188 C 0.0898438 9.238281 -0.0898438 12.582031 0 15.488281 C 0.0898438 19.183594 0.96875 22.261719 2.726562 24.726562 C 4.488281 27.191406 7.390625 28.511719 11.441406 28.511719 C 15.136719 28.511719 18.039062 27.277344 20.0625 24.640625 C 22.085938 22 23.144531 18.832031 23.320312 14.960938 C 23.40625 12.496094 22.96875 10.207031 22.085938 7.917969 C 20.414062 9.414062 18.832031 10.207031 17.335938 10.207031 Z M 18.304688 -17.777344 C 15.398438 -17.777344 13.816406 -19.625 13.640625 -23.230469 C 13.289062 -27.191406 14.871094 -31.765625 18.214844 -36.957031 C 21.558594 -42.152344 25.078125 -44.703125 28.953125 -44.703125 C 30.359375 -44.703125 31.503906 -44.175781 32.296875 -43.117188 C 33 -42.0625 33.4375 -40.742188 33.613281 -39.246094 C 33.792969 -36.519531 33 -33.4375 31.328125 -30.007812 C 29.65625 -26.574219 27.542969 -23.671875 25.078125 -21.296875 C 22.527344 -18.917969 20.238281 -17.777344 18.304688 -17.777344 Z M 18.304688 -17.777344 "/></g></g></g><g fill="#55996f" fill-opacity="1"><g transform="translate(214.279479, 211.353641)"><g><path d="M 18.214844 1.144531 C 23.144531 1.054688 27.101562 -2.113281 30.09375 -8.449219 C 33.085938 -14.785156 34.671875 -22.96875 34.671875 -33.085938 C 34.671875 -35.023438 34.582031 -36.871094 34.40625 -38.808594 C 34.230469 -40.742188 34.054688 -42.855469 33.703125 -45.320312 C 33.351562 -47.78125 32.734375 -49.984375 32.03125 -52.007812 C 31.238281 -53.941406 30.269531 -55.878906 29.214844 -57.636719 C 28.070312 -59.398438 26.574219 -60.71875 24.816406 -61.6875 C 23.054688 -62.652344 21.03125 -63.09375 18.742188 -63.09375 C 13.816406 -62.917969 9.769531 -59.75 6.777344 -53.414062 C 3.785156 -47.078125 2.289062 -38.894531 2.289062 -28.863281 C 2.289062 -26.925781 2.289062 -24.992188 2.464844 -23.054688 C 2.640625 -21.121094 2.902344 -19.007812 3.257812 -16.542969 C 3.609375 -14.078125 4.136719 -11.878906 4.929688 -9.945312 C 5.632812 -7.917969 6.601562 -6.070312 7.742188 -4.3125 C 8.800781 -2.550781 10.296875 -1.144531 12.054688 -0.175781 C 13.816406 0.792969 15.925781 1.230469 18.214844 1.144531 Z M 23.230469 -44.703125 C 24.464844 -44.703125 25.429688 -44.175781 26.136719 -43.292969 C 26.839844 -42.328125 27.191406 -41.183594 27.277344 -39.863281 C 27.457031 -37.398438 26.75 -34.671875 25.34375 -31.589844 C 23.847656 -28.511719 22 -25.871094 19.800781 -23.757812 C 17.511719 -21.648438 15.488281 -20.589844 13.726562 -20.589844 C 11.265625 -20.589844 9.945312 -22.175781 9.769531 -25.34375 C 9.589844 -27.632812 10.121094 -30.269531 11.351562 -33.261719 C 12.582031 -36.253906 14.253906 -38.984375 16.457031 -41.269531 C 18.65625 -43.558594 20.945312 -44.703125 23.230469 -44.703125 Z M 23.230469 -44.703125 "/></g></g></g><g fill="#55996f" fill-opacity="1"><g transform="translate(248.33389, 211.353641)"><g><path d="M 0 -77.613281 C 4.3125 -71.542969 6.601562 -64.941406 6.777344 -57.726562 C 6.953125 -50.863281 6.335938 -42.503906 5.015625 -32.734375 C 3.433594 -21.824219 2.726562 -14.609375 2.816406 -11.085938 C 2.902344 -2.992188 6.511719 1.144531 13.726562 1.144531 C 17.511719 1.230469 20.414062 0 22.4375 -2.640625 C 24.464844 -5.28125 25.519531 -8.535156 25.695312 -12.40625 C 25.695312 -14.871094 25.253906 -17.160156 24.464844 -19.449219 C 22.703125 -17.863281 21.121094 -17.160156 19.625 -17.160156 C 16.808594 -17.160156 15.398438 -20.414062 15.3125 -26.925781 C 15.222656 -31.414062 15.574219 -37.398438 16.367188 -44.789062 C 16.894531 -49.71875 17.597656 -54.910156 18.65625 -60.453125 C 19.886719 -68.023438 20.503906 -72.421875 20.328125 -73.652344 C 19.625 -78.230469 16.367188 -80.605469 10.734375 -80.605469 C 8.535156 -80.605469 6.6875 -80.339844 5.28125 -79.988281 C 3.871094 -79.550781 2.113281 -78.757812 0 -77.613281 Z M 0 -77.613281 "/></g></g></g><g fill="#55996f" fill-opacity="1"><g transform="translate(271.916774, 211.353641)"><g><path d="M 7.304688 -40.214844 C 7.480469 -35.640625 6.863281 -30.535156 5.542969 -24.726562 C 3.960938 -18.128906 3.257812 -13.464844 3.34375 -10.824219 C 3.433594 -2.902344 7.039062 1.144531 14.253906 1.144531 C 17.953125 1.230469 20.855469 0 22.878906 -2.640625 C 24.902344 -5.28125 25.960938 -8.535156 26.136719 -12.40625 C 26.222656 -14.871094 25.785156 -17.160156 24.902344 -19.449219 C 23.144531 -17.863281 21.558594 -17.160156 20.152344 -17.160156 C 17.160156 -17.160156 15.75 -20.414062 15.75 -26.925781 C 15.75 -31.414062 16.894531 -38.542969 19.183594 -48.222656 C 19.269531 -48.925781 19.449219 -49.71875 19.710938 -50.773438 C 19.976562 -51.742188 20.152344 -52.535156 20.328125 -53.0625 C 20.414062 -53.589844 20.503906 -54.292969 20.589844 -55 C 20.679688 -55.703125 20.765625 -56.320312 20.765625 -56.847656 C 20.679688 -60.980469 17.777344 -63.09375 11.96875 -63.09375 C 7.742188 -63.09375 3.960938 -62.039062 0.441406 -60.101562 C 4.839844 -53.941406 7.128906 -47.34375 7.304688 -40.214844 Z M 0 -79.023438 C 0 -75.855469 1.054688 -73.300781 3.167969 -71.542969 C 5.28125 -69.695312 8.183594 -68.8125 11.878906 -68.8125 C 15.574219 -68.8125 18.480469 -69.695312 20.589844 -71.542969 C 22.617188 -73.300781 23.671875 -75.855469 23.671875 -79.023438 C 23.671875 -82.191406 22.617188 -84.742188 20.589844 -86.589844 C 18.480469 -88.347656 15.574219 -89.316406 11.878906 -89.316406 C 8.183594 -89.316406 5.28125 -88.347656 3.167969 -86.5 C 1.054688 -84.652344 0 -82.191406 0 -79.023438 Z M 0 -79.023438 "/></g></g></g><g fill="#e12c2c" fill-opacity="1"><g transform="translate(74.805902, 211.353641)"><g><path d="M 27.101562 -54.46875 C 26.664062 -55.789062 25.960938 -57.902344 25.078125 -60.71875 L 23.230469 -66.261719 C 22.351562 -68.988281 21.382812 -71.628906 20.328125 -74.269531 C 19.625 -76.117188 18.566406 -77.4375 17.246094 -78.316406 C 15.839844 -79.199219 13.902344 -79.636719 11.441406 -79.636719 C 6.953125 -79.636719 3.34375 -78.667969 0.703125 -76.734375 C 4.929688 -70.75 7.214844 -62.917969 7.480469 -53.328125 C 7.480469 -48.398438 6.953125 -41.621094 5.71875 -33 C 5.542969 -32.296875 5.367188 -31.0625 5.105469 -29.304688 C 4.75 -27.542969 4.574219 -26.3125 4.488281 -25.695312 C 4.398438 -24.992188 4.222656 -23.757812 4.046875 -22 C 3.785156 -20.238281 3.695312 -19.007812 3.695312 -18.304688 C 3.695312 -17.597656 3.609375 -16.367188 3.433594 -14.609375 C 3.257812 -12.847656 3.34375 -11.617188 3.519531 -10.910156 C 4.046875 -2.816406 7.65625 1.144531 14.429688 1.144531 C 18.214844 1.230469 21.121094 0 23.144531 -2.640625 C 25.167969 -5.191406 26.222656 -8.359375 26.398438 -12.230469 C 26.398438 -15.398438 25.960938 -18.128906 25.167969 -20.414062 C 23.496094 -18.917969 21.910156 -18.214844 20.328125 -18.214844 C 18.742188 -18.128906 17.6875 -19.007812 17.070312 -20.855469 C 16.367188 -22.617188 16.015625 -24.992188 16.015625 -27.808594 C 15.839844 -34.847656 16.105469 -40.566406 16.632812 -44.964844 C 16.984375 -49.191406 17.335938 -51.917969 17.511719 -52.972656 C 18.566406 -50.6875 19.625 -48.222656 20.589844 -45.582031 C 21.558594 -42.941406 22.527344 -40.039062 23.582031 -36.957031 C 24.640625 -33.792969 25.429688 -31.503906 25.960938 -30.09375 C 27.101562 -27.101562 28.773438 -21.734375 31.0625 -14.078125 C 31.238281 -13.199219 31.503906 -12.054688 31.855469 -10.648438 C 32.207031 -9.238281 32.472656 -8.183594 32.648438 -7.480469 C 32.824219 -6.777344 33.175781 -5.894531 33.527344 -5.015625 C 33.878906 -4.046875 34.230469 -3.257812 34.671875 -2.640625 C 36.253906 -0.0898438 38.984375 1.144531 43.03125 1.144531 C 45.144531 1.144531 47.078125 0.703125 49.015625 -0.265625 C 50.863281 -1.230469 52.269531 -2.726562 53.238281 -4.664062 C 51.125 -6.421875 49.542969 -8.976562 48.3125 -12.496094 C 47.078125 -15.925781 46.285156 -18.832031 46.023438 -21.121094 C 45.757812 -23.40625 45.582031 -25.605469 45.582031 -27.808594 C 45.496094 -30.09375 46.023438 -35.550781 47.078125 -44.261719 C 47.167969 -45.671875 47.957031 -50.160156 49.542969 -57.726562 C 50.863281 -64.765625 51.300781 -69.78125 50.949219 -72.773438 C 50.246094 -77.351562 47.078125 -79.636719 41.359375 -79.636719 C 39.160156 -79.636719 37.3125 -79.375 35.902344 -79.023438 C 34.496094 -78.667969 32.734375 -77.878906 30.625 -76.734375 C 34.847656 -70.839844 37.136719 -63.007812 37.398438 -53.328125 C 37.664062 -41.886719 37.398438 -33.527344 36.695312 -28.421875 C 34.054688 -34.144531 30.886719 -42.855469 27.101562 -54.46875 Z M 27.101562 -54.46875 "/></g></g></g><g fill="#e12c2c" fill-opacity="1"><g transform="translate(127.691484, 211.353641)"><g><path d="M 26.222656 -8.625 L 26.574219 -8.625 C 26.75 -5.632812 27.632812 -3.257812 29.214844 -1.496094 C 30.710938 0.265625 32.558594 1.144531 34.847656 1.144531 C 38.542969 1.230469 41.183594 0 42.855469 -2.550781 C 44.4375 -5.015625 45.320312 -8.359375 45.496094 -12.40625 C 45.582031 -14.871094 45.144531 -17.160156 44.261719 -19.449219 C 42.503906 -17.863281 40.917969 -17.160156 39.511719 -17.160156 C 36.695312 -17.160156 35.199219 -20.414062 35.109375 -26.925781 C 35.109375 -28.335938 35.023438 -30.269531 35.023438 -32.648438 C 35.023438 -34.933594 35.023438 -36.871094 35.023438 -38.277344 C 35.023438 -39.6875 34.933594 -41.359375 34.847656 -43.382812 C 34.757812 -45.320312 34.671875 -46.902344 34.496094 -48.132812 C 34.320312 -49.367188 34.144531 -50.773438 33.792969 -52.359375 C 33.4375 -53.941406 33.085938 -55.175781 32.648438 -56.054688 C 32.117188 -56.933594 31.589844 -57.902344 30.886719 -58.957031 C 30.183594 -60.015625 29.304688 -60.804688 28.421875 -61.335938 C 27.457031 -61.863281 26.3125 -62.300781 25.078125 -62.652344 C 23.757812 -63.007812 22.351562 -63.183594 20.765625 -63.183594 L 19.976562 -63.183594 C 16.457031 -63.007812 13.289062 -61.511719 10.558594 -58.605469 C 5.808594 -53.589844 2.816406 -45.933594 1.496094 -35.640625 C 0.0898438 -25.605469 0.792969 -16.894531 3.433594 -9.589844 C 6.070312 -2.199219 10.03125 1.320312 15.488281 1.144531 C 20.328125 1.054688 23.933594 -2.199219 26.222656 -8.625 Z M 22.703125 -44.703125 C 25.519531 -44.703125 27.101562 -42.765625 27.367188 -39.070312 C 27.542969 -36.34375 26.75 -33.261719 25.167969 -29.742188 C 23.496094 -26.222656 21.382812 -23.230469 18.917969 -20.765625 C 16.367188 -18.304688 14.078125 -17.160156 12.054688 -17.160156 C 9.152344 -17.160156 7.566406 -19.09375 7.390625 -22.792969 C 7.214844 -25.253906 7.832031 -28.246094 9.238281 -31.679688 C 10.648438 -35.109375 12.582031 -38.101562 15.136719 -40.742188 C 17.597656 -43.382812 20.152344 -44.703125 22.703125 -44.703125 Z M 22.703125 -44.703125 "/></g></g></g><g fill="#e12c2c" fill-opacity="1"><g transform="translate(171.953439, 211.353641)"><g><path d="M 17.335938 10.207031 C 15.574219 10.207031 14.253906 9.152344 13.289062 6.953125 C 12.320312 4.839844 11.878906 2.464844 11.96875 -0.0898438 C 11.96875 -2.550781 12.230469 -4.839844 12.582031 -6.777344 L 13.289062 -6.777344 C 13.902344 -4.3125 15.222656 -2.375 17.335938 -0.96875 C 19.359375 0.441406 21.734375 1.144531 24.375 1.144531 C 26.839844 1.144531 29.128906 0.617188 31.0625 -0.617188 C 33 -1.847656 34.671875 -3.433594 35.902344 -5.542969 C 37.136719 -7.65625 38.191406 -9.855469 39.070312 -12.230469 C 39.949219 -14.519531 40.566406 -17.160156 41.007812 -19.976562 C 41.359375 -22.792969 41.710938 -25.253906 41.886719 -27.367188 C 42.0625 -29.480469 42.152344 -31.589844 42.238281 -33.703125 C 42.589844 -53.152344 38.367188 -62.917969 29.566406 -63.09375 C 22.351562 -63.09375 17.953125 -58.253906 16.542969 -48.574219 L 15.75 -48.574219 C 15.839844 -50.6875 16.015625 -52.796875 16.191406 -54.910156 C 16.367188 -57.023438 15.925781 -58.957031 14.871094 -60.628906 C 13.816406 -62.214844 12.054688 -63.09375 9.679688 -63.183594 C 7.65625 -63.183594 6.070312 -62.917969 4.929688 -62.566406 C 3.785156 -62.125 2.464844 -61.335938 0.878906 -60.101562 C 4.222656 -54.644531 5.894531 -48.925781 5.984375 -42.855469 C 5.984375 -36.167969 5.367188 -27.984375 4.046875 -18.480469 C 3.785156 -16.632812 3.257812 -13.199219 2.464844 -8.097656 C 1.582031 -2.992188 0.96875 1.496094 0.527344 5.367188 C 0.0898438 9.238281 -0.0898438 12.582031 0 15.488281 C 0.0898438 19.183594 0.96875 22.261719 2.726562 24.726562 C 4.488281 27.191406 7.390625 28.511719 11.441406 28.511719 C 15.136719 28.511719 18.039062 27.277344 20.0625 24.640625 C 22.085938 22 23.144531 18.832031 23.320312 14.960938 C 23.40625 12.496094 22.96875 10.207031 22.085938 7.917969 C 20.414062 9.414062 18.832031 10.207031 17.335938 10.207031 Z M 18.304688 -17.777344 C 15.398438 -17.777344 13.816406 -19.625 13.640625 -23.230469 C 13.289062 -27.191406 14.871094 -31.765625 18.214844 -36.957031 C 21.558594 -42.152344 25.078125 -44.703125 28.953125 -44.703125 C 30.359375 -44.703125 31.503906 -44.175781 32.296875 -43.117188 C 33 -42.0625 33.4375 -40.742188 33.613281 -39.246094 C 33.792969 -36.519531 33 -33.4375 31.328125 -30.007812 C 29.65625 -26.574219 27.542969 -23.671875 25.078125 -21.296875 C 22.527344 -18.917969 20.238281 -17.777344 18.304688 -17.777344 Z M 18.304688 -17.777344 "/></g></g></g><g fill="#e12c2c" fill-opacity="1"><g transform="translate(214.279479, 211.353641)"><g><path d="M 18.214844 1.144531 C 23.144531 1.054688 27.101562 -2.113281 30.09375 -8.449219 C 33.085938 -14.785156 34.671875 -22.96875 34.671875 -33.085938 C 34.671875 -35.023438 34.582031 -36.871094 34.40625 -38.808594 C 34.230469 -40.742188 34.054688 -42.855469 33.703125 -45.320312 C 33.351562 -47.78125 32.734375 -49.984375 32.03125 -52.007812 C 31.238281 -53.941406 30.269531 -55.878906 29.214844 -57.636719 C 28.070312 -59.398438 26.574219 -60.71875 24.816406 -61.6875 C 23.054688 -62.652344 21.03125 -63.09375 18.742188 -63.09375 C 13.816406 -62.917969 9.769531 -59.75 6.777344 -53.414062 C 3.785156 -47.078125 2.289062 -38.894531 2.289062 -28.863281 C 2.289062 -26.925781 2.289062 -24.992188 2.464844 -23.054688 C 2.640625 -21.121094 2.902344 -19.007812 3.257812 -16.542969 C 3.609375 -14.078125 4.136719 -11.878906 4.929688 -9.945312 C 5.632812 -7.917969 6.601562 -6.070312 7.742188 -4.3125 C 8.800781 -2.550781 10.296875 -1.144531 12.054688 -0.175781 C 13.816406 0.792969 15.925781 1.230469 18.214844 1.144531 Z M 23.230469 -44.703125 C 24.464844 -44.703125 25.429688 -44.175781 26.136719 -43.292969 C 26.839844 -42.328125 27.191406 -41.183594 27.277344 -39.863281 C 27.457031 -37.398438 26.75 -34.671875 25.34375 -31.589844 C 23.847656 -28.511719 22 -25.871094 19.800781 -23.757812 C 17.511719 -21.648438 15.488281 -20.589844 13.726562 -20.589844 C 11.265625 -20.589844 9.945312 -22.175781 9.769531 -25.34375 C 9.589844 -27.632812 10.121094 -30.269531 11.351562 -33.261719 C 12.582031 -36.253906 14.253906 -38.984375 16.457031 -41.269531 C 18.65625 -43.558594 20.945312 -44.703125 23.230469 -44.703125 Z M 23.230469 -44.703125 "/></g></g></g><g fill="#e12c2c" fill-opacity="1"><g transform="translate(248.33389, 211.353641)"><g><path d="M 0 -77.613281 C 4.3125 -71.542969 6.601562 -64.941406 6.777344 -57.726562 C 6.953125 -50.863281 6.335938 -42.503906 5.015625 -32.734375 C 3.433594 -21.824219 2.726562 -14.609375 2.816406 -11.085938 C 2.902344 -2.992188 6.511719 1.144531 13.726562 1.144531 C 17.511719 1.230469 20.414062 0 22.4375 -2.640625 C 24.464844 -5.28125 25.519531 -8.535156 25.695312 -12.40625 C 25.695312 -14.871094 25.253906 -17.160156 24.464844 -19.449219 C 22.703125 -17.863281 21.121094 -17.160156 19.625 -17.160156 C 16.808594 -17.160156 15.398438 -20.414062 15.3125 -26.925781 C 15.222656 -31.414062 15.574219 -37.398438 16.367188 -44.789062 C 16.894531 -49.71875 17.597656 -54.910156 18.65625 -60.453125 C 19.886719 -68.023438 20.503906 -72.421875 20.328125 -73.652344 C 19.625 -78.230469 16.367188 -80.605469 10.734375 -80.605469 C 8.535156 -80.605469 6.6875 -80.339844 5.28125 -79.988281 C 3.871094 -79.550781 2.113281 -78.757812 0 -77.613281 Z M 0 -77.613281 "/></g></g></g><g fill="#e12c2c" fill-opacity="1"><g transform="translate(271.916774, 211.353641)"><g><path d="M 7.304688 -40.214844 C 7.480469 -35.640625 6.863281 -30.535156 5.542969 -24.726562 C 3.960938 -18.128906 3.257812 -13.464844 3.34375 -10.824219 C 3.433594 -2.902344 7.039062 1.144531 14.253906 1.144531 C 17.953125 1.230469 20.855469 0 22.878906 -2.640625 C 24.902344 -5.28125 25.960938 -8.535156 26.136719 -12.40625 C 26.222656 -14.871094 25.785156 -17.160156 24.902344 -19.449219 C 23.144531 -17.863281 21.558594 -17.160156 20.152344 -17.160156 C 17.160156 -17.160156 15.75 -20.414062 15.75 -26.925781 C 15.75 -31.414062 16.894531 -38.542969 19.183594 -48.222656 C 19.269531 -48.925781 19.449219 -49.71875 19.710938 -50.773438 C 19.976562 -51.742188 20.152344 -52.535156 20.328125 -53.0625 C 20.414062 -53.589844 20.503906 -54.292969 20.589844 -55 C 20.679688 -55.703125 20.765625 -56.320312 20.765625 -56.847656 C 20.679688 -60.980469 17.777344 -63.09375 11.96875 -63.09375 C 7.742188 -63.09375 3.960938 -62.039062 0.441406 -60.101562 C 4.839844 -53.941406 7.128906 -47.34375 7.304688 -40.214844 Z M 0 -79.023438 C 0 -75.855469 1.054688 -73.300781 3.167969 -71.542969 C 5.28125 -69.695312 8.183594 -68.8125 11.878906 -68.8125 C 15.574219 -68.8125 18.480469 -69.695312 20.589844 -71.542969 C 22.617188 -73.300781 23.671875 -75.855469 23.671875 -79.023438 C 23.671875 -82.191406 22.617188 -84.742188 20.589844 -86.589844 C 18.480469 -88.347656 15.574219 -89.316406 11.878906 -89.316406 C 8.183594 -89.316406 5.28125 -88.347656 3.167969 -86.5 C 1.054688 -84.652344 0 -82.191406 0 -79.023438 Z M 0 -79.023438 "/></g></g></g><g fill="#e12c2c" fill-opacity="1"><g transform="translate(76.928517, 232.928656)"><g><path d="M 0.203125 -8.421875 C 0.667969 -7.765625 0.917969 -6.90625 0.945312 -5.855469 C 0.945312 -5.3125 0.890625 -4.570312 0.753906 -3.621094 C 0.734375 -3.546875 0.714844 -3.410156 0.6875 -3.214844 C 0.648438 -3.023438 0.628906 -2.886719 0.617188 -2.820312 C 0.609375 -2.742188 0.589844 -2.609375 0.570312 -2.414062 C 0.539062 -2.222656 0.53125 -2.085938 0.53125 -2.007812 C 0.53125 -1.933594 0.523438 -1.796875 0.503906 -1.605469 C 0.484375 -1.410156 0.492188 -1.273438 0.511719 -1.199219 C 0.570312 -0.308594 0.964844 0.125 1.710938 0.125 C 2.125 0.136719 2.445312 0 2.667969 -0.289062 C 2.886719 -0.570312 3.003906 -0.917969 3.023438 -1.34375 C 3.023438 -1.691406 2.976562 -1.988281 2.886719 -2.242188 C 2.703125 -2.078125 2.53125 -2 2.355469 -2 C 2.183594 -1.988281 2.066406 -2.085938 2 -2.289062 C 1.921875 -2.484375 1.882812 -2.742188 1.882812 -3.050781 C 1.875 -3.457031 1.914062 -4.066406 2 -4.859375 C 2.019531 -5.0625 2.117188 -5.554688 2.269531 -6.335938 C 2.425781 -7.089844 2.472656 -7.640625 2.433594 -7.988281 C 2.355469 -8.492188 2 -8.742188 1.382812 -8.742188 C 1.140625 -8.742188 0.9375 -8.714844 0.78125 -8.675781 C 0.628906 -8.636719 0.433594 -8.550781 0.203125 -8.421875 Z M 0.203125 -8.421875 "/></g></g></g><g fill="#e12c2c" fill-opacity="1"><g transform="translate(80.153812, 232.928656)"><g><path d="M 4.472656 -1.632812 C 4.472656 -2 4.386719 -2.308594 4.210938 -2.558594 C 4.027344 -2.8125 3.765625 -2.9375 3.417969 -2.9375 C 3.3125 -2.230469 3.070312 -1.882812 2.683594 -1.882812 C 2.539062 -1.882812 2.433594 -1.941406 2.367188 -2.058594 C 2.300781 -2.171875 2.261719 -2.320312 2.261719 -2.484375 C 2.242188 -3.042969 2.328125 -3.929688 2.519531 -5.140625 C 2.597656 -5.160156 2.667969 -5.167969 2.722656 -5.167969 C 2.9375 -5.167969 3.042969 -5.023438 3.0625 -4.734375 C 3.070312 -4.445312 2.996094 -4.222656 2.832031 -4.066406 C 2.984375 -4.027344 3.128906 -4.007812 3.265625 -4.007812 C 3.691406 -4.007812 4.039062 -4.152344 4.289062 -4.464844 C 4.539062 -4.773438 4.675781 -5.140625 4.683594 -5.5625 C 4.683594 -5.941406 4.597656 -6.230469 4.414062 -6.433594 C 4.230469 -6.625 4.007812 -6.734375 3.75 -6.734375 C 3.496094 -6.734375 3.253906 -6.644531 3.042969 -6.472656 C 2.832031 -6.296875 2.683594 -6.058594 2.609375 -5.757812 C 2.65625 -6.046875 2.714844 -6.328125 2.773438 -6.597656 C 2.832031 -6.867188 2.867188 -7.0625 2.886719 -7.1875 C 2.90625 -7.3125 2.925781 -7.4375 2.925781 -7.554688 C 2.925781 -7.855469 2.820312 -8.074219 2.617188 -8.210938 C 2.40625 -8.347656 2.152344 -8.421875 1.855469 -8.421875 C 1.621094 -8.421875 1.4375 -8.394531 1.304688 -8.355469 C 1.167969 -8.316406 0.984375 -8.230469 0.742188 -8.09375 C 0.917969 -7.941406 1.082031 -7.621094 1.238281 -7.148438 C 1.390625 -6.664062 1.476562 -6.210938 1.496094 -5.765625 C 1.226562 -5.804688 1.023438 -5.910156 0.890625 -6.066406 C 0.753906 -6.222656 0.589844 -6.472656 0.414062 -6.828125 C 0.078125 -6.480469 -0.0976562 -6.105469 -0.105469 -5.71875 C -0.125 -5.179688 0.0664062 -4.839844 0.453125 -4.714844 C 0.550781 -4.675781 0.636719 -4.664062 0.722656 -4.664062 C 0.925781 -4.664062 1.160156 -4.753906 1.410156 -4.925781 C 1.390625 -4.820312 1.324219 -4.40625 1.199219 -3.679688 C 1.0625 -2.945312 0.996094 -2.347656 0.976562 -1.882812 C 0.9375 -1.34375 1.023438 -0.898438 1.21875 -0.570312 C 1.476562 -0.105469 1.933594 0.125 2.578125 0.125 C 3.082031 0.125 3.527344 -0.0390625 3.902344 -0.375 C 4.269531 -0.707031 4.464844 -1.128906 4.472656 -1.632812 Z M 4.472656 -1.632812 "/></g></g></g><g fill="#e12c2c" fill-opacity="1"><g transform="translate(85.011023, 232.928656)"><g><path d="M 2.878906 -0.945312 L 2.917969 -0.945312 C 2.9375 -0.617188 3.035156 -0.355469 3.207031 -0.164062 C 3.371094 0.0273438 3.574219 0.125 3.824219 0.125 C 4.230469 0.136719 4.519531 0 4.703125 -0.28125 C 4.878906 -0.550781 4.976562 -0.917969 4.996094 -1.363281 C 5.003906 -1.632812 4.957031 -1.882812 4.859375 -2.136719 C 4.664062 -1.960938 4.492188 -1.882812 4.335938 -1.882812 C 4.027344 -1.882812 3.863281 -2.242188 3.855469 -2.957031 C 3.855469 -3.109375 3.84375 -3.324219 3.84375 -3.582031 C 3.84375 -3.835938 3.84375 -4.046875 3.84375 -4.203125 C 3.84375 -4.355469 3.835938 -4.539062 3.824219 -4.761719 C 3.816406 -4.976562 3.804688 -5.148438 3.785156 -5.285156 C 3.765625 -5.417969 3.75 -5.574219 3.710938 -5.746094 C 3.671875 -5.921875 3.632812 -6.058594 3.582031 -6.152344 C 3.527344 -6.25 3.46875 -6.355469 3.390625 -6.472656 C 3.3125 -6.589844 3.214844 -6.675781 3.121094 -6.734375 C 3.015625 -6.789062 2.886719 -6.839844 2.753906 -6.878906 C 2.609375 -6.917969 2.453125 -6.9375 2.28125 -6.9375 L 2.191406 -6.9375 C 1.804688 -6.917969 1.457031 -6.753906 1.160156 -6.433594 C 0.636719 -5.882812 0.308594 -5.042969 0.164062 -3.914062 C 0.0078125 -2.8125 0.0859375 -1.855469 0.375 -1.054688 C 0.667969 -0.242188 1.101562 0.144531 1.699219 0.125 C 2.230469 0.117188 2.628906 -0.242188 2.878906 -0.945312 Z M 2.492188 -4.90625 C 2.800781 -4.90625 2.976562 -4.695312 3.003906 -4.289062 C 3.023438 -3.988281 2.9375 -3.652344 2.761719 -3.265625 C 2.578125 -2.878906 2.347656 -2.550781 2.078125 -2.28125 C 1.796875 -2.007812 1.546875 -1.882812 1.324219 -1.882812 C 1.003906 -1.882812 0.832031 -2.097656 0.8125 -2.5 C 0.792969 -2.773438 0.859375 -3.101562 1.015625 -3.476562 C 1.167969 -3.855469 1.382812 -4.183594 1.660156 -4.472656 C 1.933594 -4.761719 2.210938 -4.90625 2.492188 -4.90625 Z M 2.492188 -4.90625 "/></g></g></g><g fill="#e12c2c" fill-opacity="1"><g transform="translate(90.302766, 232.928656)"><g><path d="M 0 -8.519531 C 0.472656 -7.855469 0.722656 -7.128906 0.742188 -6.335938 C 0.761719 -5.582031 0.695312 -4.664062 0.550781 -3.59375 C 0.375 -2.394531 0.300781 -1.605469 0.308594 -1.21875 C 0.320312 -0.328125 0.714844 0.125 1.507812 0.125 C 1.921875 0.136719 2.242188 0 2.464844 -0.289062 C 2.683594 -0.578125 2.800781 -0.9375 2.820312 -1.363281 C 2.820312 -1.632812 2.773438 -1.882812 2.683594 -2.136719 C 2.492188 -1.960938 2.320312 -1.882812 2.152344 -1.882812 C 1.84375 -1.882812 1.691406 -2.242188 1.679688 -2.957031 C 1.671875 -3.449219 1.710938 -4.105469 1.796875 -4.917969 C 1.855469 -5.457031 1.933594 -6.027344 2.046875 -6.636719 C 2.183594 -7.46875 2.25 -7.949219 2.230469 -8.085938 C 2.152344 -8.585938 1.796875 -8.847656 1.179688 -8.847656 C 0.9375 -8.847656 0.734375 -8.820312 0.578125 -8.78125 C 0.425781 -8.734375 0.230469 -8.644531 0 -8.519531 Z M 0 -8.519531 "/></g></g></g><g fill="#e12c2c" fill-opacity="1"><g transform="translate(93.325272, 232.928656)"><g><path d="M 0.800781 -4.414062 C 0.820312 -3.914062 0.753906 -3.351562 0.609375 -2.714844 C 0.433594 -1.988281 0.355469 -1.476562 0.367188 -1.1875 C 0.375 -0.320312 0.773438 0.125 1.566406 0.125 C 1.96875 0.136719 2.289062 0 2.511719 -0.289062 C 2.734375 -0.578125 2.851562 -0.9375 2.867188 -1.363281 C 2.878906 -1.632812 2.832031 -1.882812 2.734375 -2.136719 C 2.539062 -1.960938 2.367188 -1.882812 2.210938 -1.882812 C 1.882812 -1.882812 1.730469 -2.242188 1.730469 -2.957031 C 1.730469 -3.449219 1.855469 -4.230469 2.105469 -5.292969 C 2.117188 -5.371094 2.136719 -5.457031 2.164062 -5.574219 C 2.191406 -5.679688 2.210938 -5.765625 2.230469 -5.824219 C 2.242188 -5.882812 2.25 -5.960938 2.261719 -6.039062 C 2.269531 -6.113281 2.28125 -6.183594 2.28125 -6.242188 C 2.269531 -6.695312 1.953125 -6.925781 1.3125 -6.925781 C 0.851562 -6.925781 0.433594 -6.808594 0.046875 -6.597656 C 0.53125 -5.921875 0.78125 -5.195312 0.800781 -4.414062 Z M 0 -8.675781 C 0 -8.328125 0.117188 -8.046875 0.347656 -7.855469 C 0.578125 -7.652344 0.898438 -7.554688 1.304688 -7.554688 C 1.710938 -7.554688 2.027344 -7.652344 2.261719 -7.855469 C 2.484375 -8.046875 2.597656 -8.328125 2.597656 -8.675781 C 2.597656 -9.023438 2.484375 -9.300781 2.261719 -9.503906 C 2.027344 -9.699219 1.710938 -9.804688 1.304688 -9.804688 C 0.898438 -9.804688 0.578125 -9.699219 0.347656 -9.496094 C 0.117188 -9.292969 0 -9.023438 0 -8.675781 Z M 0 -8.675781 "/></g></g></g><g fill="#e12c2c" fill-opacity="1"><g transform="translate(96.627815, 232.928656)"><g><path d="M 2.878906 -0.945312 L 2.917969 -0.945312 C 2.9375 -0.617188 3.035156 -0.355469 3.207031 -0.164062 C 3.371094 0.0273438 3.574219 0.125 3.824219 0.125 C 4.230469 0.136719 4.519531 0 4.703125 -0.28125 C 4.878906 -0.550781 4.976562 -0.917969 4.996094 -1.363281 C 5.003906 -1.632812 4.957031 -1.882812 4.859375 -2.136719 C 4.664062 -1.960938 4.492188 -1.882812 4.335938 -1.882812 C 4.027344 -1.882812 3.863281 -2.242188 3.855469 -2.957031 C 3.855469 -3.109375 3.84375 -3.324219 3.84375 -3.582031 C 3.84375 -3.835938 3.84375 -4.046875 3.84375 -4.203125 C 3.84375 -4.355469 3.835938 -4.539062 3.824219 -4.761719 C 3.816406 -4.976562 3.804688 -5.148438 3.785156 -5.285156 C 3.765625 -5.417969 3.75 -5.574219 3.710938 -5.746094 C 3.671875 -5.921875 3.632812 -6.058594 3.582031 -6.152344 C 3.527344 -6.25 3.46875 -6.355469 3.390625 -6.472656 C 3.3125 -6.589844 3.214844 -6.675781 3.121094 -6.734375 C 3.015625 -6.789062 2.886719 -6.839844 2.753906 -6.878906 C 2.609375 -6.917969 2.453125 -6.9375 2.28125 -6.9375 L 2.191406 -6.9375 C 1.804688 -6.917969 1.457031 -6.753906 1.160156 -6.433594 C 0.636719 -5.882812 0.308594 -5.042969 0.164062 -3.914062 C 0.0078125 -2.8125 0.0859375 -1.855469 0.375 -1.054688 C 0.667969 -0.242188 1.101562 0.144531 1.699219 0.125 C 2.230469 0.117188 2.628906 -0.242188 2.878906 -0.945312 Z M 2.492188 -4.90625 C 2.800781 -4.90625 2.976562 -4.695312 3.003906 -4.289062 C 3.023438 -3.988281 2.9375 -3.652344 2.761719 -3.265625 C 2.578125 -2.878906 2.347656 -2.550781 2.078125 -2.28125 C 1.796875 -2.007812 1.546875 -1.882812 1.324219 -1.882812 C 1.003906 -1.882812 0.832031 -2.097656 0.8125 -2.5 C 0.792969 -2.773438 0.859375 -3.101562 1.015625 -3.476562 C 1.167969 -3.855469 1.382812 -4.183594 1.660156 -4.472656 C 1.933594 -4.761719 2.210938 -4.90625 2.492188 -4.90625 Z M 2.492188 -4.90625 "/></g></g></g><g fill="#e12c2c" fill-opacity="1"><g transform="translate(101.919557, 232.928656)"><g><path d="M 4.394531 0.125 C 4.800781 0.136719 5.109375 0 5.304688 -0.289062 C 5.496094 -0.578125 5.574219 -0.9375 5.554688 -1.363281 C 5.542969 -1.605469 5.476562 -1.863281 5.359375 -2.136719 C 5.179688 -1.960938 5.003906 -1.882812 4.847656 -1.882812 C 4.453125 -1.882812 4.316406 -2.230469 4.453125 -2.945312 C 4.65625 -3.96875 4.773438 -4.609375 4.8125 -4.867188 C 4.898438 -5.515625 4.828125 -6.027344 4.597656 -6.394531 C 4.355469 -6.742188 3.96875 -6.925781 3.449219 -6.925781 C 3.1875 -6.925781 2.957031 -6.867188 2.753906 -6.773438 C 2.550781 -6.664062 2.386719 -6.519531 2.25 -6.335938 C 2.117188 -6.144531 2.007812 -5.980469 1.941406 -5.84375 C 1.863281 -5.699219 1.796875 -5.527344 1.71875 -5.332031 L 1.671875 -5.332031 C 1.679688 -5.582031 1.691406 -5.835938 1.691406 -6.074219 C 1.691406 -6.308594 1.632812 -6.511719 1.507812 -6.683594 C 1.371094 -6.847656 1.167969 -6.9375 0.898438 -6.9375 C 0.570312 -6.917969 0.269531 -6.808594 0.0078125 -6.597656 C 0.320312 -6.066406 0.503906 -5.5625 0.578125 -5.101562 C 0.648438 -4.628906 0.628906 -3.929688 0.523438 -3.003906 C 0.503906 -2.90625 0.484375 -2.761719 0.464844 -2.570312 C 0.445312 -2.375 0.425781 -2.230469 0.414062 -2.152344 C 0.40625 -2.066406 0.394531 -1.933594 0.386719 -1.75 C 0.367188 -1.554688 0.367188 -1.421875 0.386719 -1.332031 C 0.445312 -0.355469 0.859375 0.125 1.632812 0.125 C 2.039062 0.136719 2.335938 -0.0078125 2.511719 -0.300781 C 2.683594 -0.589844 2.753906 -0.957031 2.722656 -1.402344 C 2.714844 -1.632812 2.648438 -1.882812 2.53125 -2.136719 C 2.355469 -1.960938 2.191406 -1.882812 2.027344 -1.882812 C 1.921875 -1.882812 1.835938 -1.933594 1.757812 -2.027344 C 1.679688 -2.125 1.621094 -2.261719 1.59375 -2.425781 C 1.535156 -2.65625 1.535156 -2.957031 1.585938 -3.324219 C 1.632812 -3.691406 1.710938 -3.980469 1.816406 -4.210938 C 2.007812 -4.675781 2.320312 -4.90625 2.734375 -4.90625 C 3.023438 -4.90625 3.226562 -4.800781 3.363281 -4.597656 C 3.496094 -4.394531 3.554688 -4.164062 3.535156 -3.894531 C 3.515625 -3.621094 3.496094 -3.34375 3.46875 -3.070312 C 3.449219 -2.976562 3.410156 -2.792969 3.351562 -2.539062 C 3.292969 -2.28125 3.253906 -2.046875 3.226562 -1.84375 C 3.1875 -1.640625 3.179688 -1.46875 3.179688 -1.3125 C 3.167969 -1.082031 3.199219 -0.859375 3.265625 -0.65625 C 3.324219 -0.453125 3.457031 -0.269531 3.652344 -0.117188 C 3.84375 0.046875 4.085938 0.125 4.394531 0.125 Z M 4.394531 0.125 "/></g></g></g><g fill="#e12c2c" fill-opacity="1"><g transform="translate(107.71342, 232.928656)"><g/></g></g><g fill="#e12c2c" fill-opacity="1"><g transform="translate(109.779953, 232.928656)"><g><path d="M 2.308594 -2.019531 C 1.988281 -2.019531 1.835938 -2.375 1.835938 -3.089844 C 1.835938 -3.140625 1.84375 -3.226562 1.855469 -3.34375 C 1.855469 -3.457031 1.863281 -3.574219 1.875 -3.699219 C 1.882812 -3.816406 1.894531 -3.929688 1.914062 -4.046875 C 2.511719 -3.71875 2.976562 -3.554688 3.324219 -3.554688 C 3.410156 -3.554688 3.476562 -3.554688 3.515625 -3.566406 C 3.730469 -3.59375 3.894531 -3.679688 4.019531 -3.835938 C 4.144531 -3.980469 4.203125 -4.171875 4.203125 -4.40625 C 4.191406 -4.695312 4.039062 -4.996094 3.730469 -5.292969 C 3.417969 -4.9375 2.976562 -4.761719 2.394531 -4.761719 C 2.261719 -4.761719 2.136719 -4.773438 2.019531 -4.792969 C 2.269531 -6.027344 2.773438 -6.644531 3.527344 -6.644531 C 3.738281 -6.644531 3.902344 -6.589844 4.027344 -6.480469 C 4.152344 -6.375 4.25 -6.183594 4.308594 -5.902344 C 4.675781 -6.058594 4.945312 -6.277344 5.109375 -6.558594 C 5.265625 -6.839844 5.351562 -7.121094 5.359375 -7.398438 C 5.359375 -7.882812 5.195312 -8.238281 4.867188 -8.480469 C 4.617188 -8.65625 4.269531 -8.742188 3.84375 -8.742188 C 3.488281 -8.742188 3.140625 -8.644531 2.8125 -8.472656 C 2.484375 -8.289062 2.242188 -8.046875 2.085938 -7.746094 L 2.058594 -7.746094 C 2.066406 -8.054688 1.988281 -8.308594 1.824219 -8.480469 C 1.652344 -8.65625 1.410156 -8.742188 1.089844 -8.742188 C 0.6875 -8.742188 0.375 -8.625 0.15625 -8.414062 C 0.597656 -7.777344 0.839844 -7.003906 0.890625 -6.074219 C 0.878906 -5.292969 0.8125 -4.492188 0.695312 -3.671875 C 0.6875 -3.613281 0.65625 -3.410156 0.609375 -3.082031 C 0.558594 -2.753906 0.53125 -2.519531 0.511719 -2.40625 C 0.492188 -2.289062 0.484375 -2.105469 0.472656 -1.863281 C 0.453125 -1.621094 0.453125 -1.410156 0.464844 -1.21875 C 0.503906 -0.328125 0.898438 0.125 1.660156 0.125 C 2.078125 0.136719 2.394531 0 2.617188 -0.289062 C 2.839844 -0.578125 2.957031 -0.9375 2.964844 -1.363281 C 2.976562 -1.710938 2.925781 -2.007812 2.832031 -2.269531 C 2.648438 -2.105469 2.472656 -2.019531 2.308594 -2.019531 Z M 2.308594 -2.019531 "/></g></g></g><g fill="#e12c2c" fill-opacity="1"><g transform="translate(114.984789, 232.928656)"><g><path d="M 2 0.125 C 2.539062 0.117188 2.976562 -0.230469 3.304688 -0.925781 C 3.632812 -1.621094 3.804688 -2.519531 3.804688 -3.632812 C 3.804688 -3.84375 3.796875 -4.046875 3.777344 -4.261719 C 3.757812 -4.472656 3.738281 -4.703125 3.699219 -4.976562 C 3.660156 -5.246094 3.59375 -5.488281 3.515625 -5.710938 C 3.429688 -5.921875 3.324219 -6.132812 3.207031 -6.328125 C 3.082031 -6.519531 2.917969 -6.664062 2.722656 -6.773438 C 2.53125 -6.878906 2.308594 -6.925781 2.058594 -6.925781 C 1.515625 -6.90625 1.070312 -6.558594 0.742188 -5.863281 C 0.414062 -5.167969 0.25 -4.269531 0.25 -3.167969 C 0.25 -2.957031 0.25 -2.742188 0.269531 -2.53125 C 0.289062 -2.320312 0.320312 -2.085938 0.355469 -1.816406 C 0.394531 -1.546875 0.453125 -1.304688 0.539062 -1.089844 C 0.617188 -0.871094 0.722656 -0.667969 0.851562 -0.472656 C 0.964844 -0.28125 1.128906 -0.125 1.324219 -0.0195312 C 1.515625 0.0859375 1.75 0.136719 2 0.125 Z M 2.550781 -4.90625 C 2.683594 -4.90625 2.792969 -4.847656 2.867188 -4.753906 C 2.945312 -4.644531 2.984375 -4.519531 2.996094 -4.375 C 3.015625 -4.105469 2.9375 -3.804688 2.78125 -3.46875 C 2.617188 -3.128906 2.414062 -2.839844 2.171875 -2.609375 C 1.921875 -2.375 1.699219 -2.261719 1.507812 -2.261719 C 1.238281 -2.261719 1.089844 -2.433594 1.070312 -2.78125 C 1.054688 -3.035156 1.109375 -3.324219 1.246094 -3.652344 C 1.382812 -3.980469 1.566406 -4.28125 1.804688 -4.53125 C 2.046875 -4.78125 2.300781 -4.90625 2.550781 -4.90625 Z M 2.550781 -4.90625 "/></g></g></g><g fill="#e12c2c" fill-opacity="1"><g transform="translate(119.156395, 232.928656)"><g><path d="M 2 0.125 C 2.539062 0.117188 2.976562 -0.230469 3.304688 -0.925781 C 3.632812 -1.621094 3.804688 -2.519531 3.804688 -3.632812 C 3.804688 -3.84375 3.796875 -4.046875 3.777344 -4.261719 C 3.757812 -4.472656 3.738281 -4.703125 3.699219 -4.976562 C 3.660156 -5.246094 3.59375 -5.488281 3.515625 -5.710938 C 3.429688 -5.921875 3.324219 -6.132812 3.207031 -6.328125 C 3.082031 -6.519531 2.917969 -6.664062 2.722656 -6.773438 C 2.53125 -6.878906 2.308594 -6.925781 2.058594 -6.925781 C 1.515625 -6.90625 1.070312 -6.558594 0.742188 -5.863281 C 0.414062 -5.167969 0.25 -4.269531 0.25 -3.167969 C 0.25 -2.957031 0.25 -2.742188 0.269531 -2.53125 C 0.289062 -2.320312 0.320312 -2.085938 0.355469 -1.816406 C 0.394531 -1.546875 0.453125 -1.304688 0.539062 -1.089844 C 0.617188 -0.871094 0.722656 -0.667969 0.851562 -0.472656 C 0.964844 -0.28125 1.128906 -0.125 1.324219 -0.0195312 C 1.515625 0.0859375 1.75 0.136719 2 0.125 Z M 2.550781 -4.90625 C 2.683594 -4.90625 2.792969 -4.847656 2.867188 -4.753906 C 2.945312 -4.644531 2.984375 -4.519531 2.996094 -4.375 C 3.015625 -4.105469 2.9375 -3.804688 2.78125 -3.46875 C 2.617188 -3.128906 2.414062 -2.839844 2.171875 -2.609375 C 1.921875 -2.375 1.699219 -2.261719 1.507812 -2.261719 C 1.238281 -2.261719 1.089844 -2.433594 1.070312 -2.78125 C 1.054688 -3.035156 1.109375 -3.324219 1.246094 -3.652344 C 1.382812 -3.980469 1.566406 -4.28125 1.804688 -4.53125 C 2.046875 -4.78125 2.300781 -4.90625 2.550781 -4.90625 Z M 2.550781 -4.90625 "/></g></g></g><g fill="#e12c2c" fill-opacity="1"><g transform="translate(123.328001, 232.928656)"><g><path d="M 5.109375 -1.363281 C 5.121094 -1.632812 5.070312 -1.882812 4.976562 -2.136719 C 4.78125 -1.960938 4.609375 -1.882812 4.453125 -1.882812 C 4.144531 -1.882812 3.980469 -2.242188 3.96875 -2.957031 C 3.960938 -3.449219 4 -4.105469 4.085938 -4.917969 C 4.144531 -5.457031 4.222656 -6.027344 4.335938 -6.636719 C 4.472656 -7.46875 4.539062 -7.949219 4.519531 -8.085938 C 4.445312 -8.585938 4.105469 -8.847656 3.496094 -8.847656 C 3.253906 -8.847656 3.050781 -8.820312 2.898438 -8.78125 C 2.742188 -8.734375 2.550781 -8.644531 2.320312 -8.519531 C 2.597656 -8.269531 2.832031 -7.910156 3.003906 -7.429688 C 3.179688 -6.945312 3.265625 -6.375 3.246094 -5.710938 C 3.140625 -6.144531 2.976562 -6.453125 2.761719 -6.644531 C 2.539062 -6.828125 2.308594 -6.925781 2.058594 -6.925781 C 1.515625 -6.925781 1.070312 -6.625 0.742188 -6.027344 C 0.355469 -5.332031 0.164062 -4.386719 0.164062 -3.167969 C 0.164062 -2.945312 0.164062 -2.734375 0.183594 -2.539062 C 0.191406 -2.347656 0.210938 -2.105469 0.25 -1.835938 C 0.28125 -1.566406 0.339844 -1.3125 0.414062 -1.101562 C 0.492188 -0.890625 0.589844 -0.675781 0.707031 -0.484375 C 0.820312 -0.28125 0.964844 -0.125 1.160156 -0.0195312 C 1.351562 0.0859375 1.566406 0.136719 1.816406 0.125 C 2.347656 0.117188 2.742188 -0.242188 2.996094 -0.945312 L 3.035156 -0.945312 C 3.050781 -0.617188 3.148438 -0.355469 3.324219 -0.164062 C 3.488281 0.0273438 3.691406 0.125 3.941406 0.125 C 4.347656 0.136719 4.636719 0 4.820312 -0.28125 C 4.996094 -0.550781 5.089844 -0.917969 5.109375 -1.363281 Z M 2.609375 -4.90625 C 2.917969 -4.90625 3.089844 -4.695312 3.121094 -4.289062 C 3.140625 -3.988281 3.050781 -3.652344 2.878906 -3.265625 C 2.695312 -2.878906 2.464844 -2.550781 2.191406 -2.28125 C 1.914062 -2.007812 1.660156 -1.882812 1.4375 -1.882812 C 1.121094 -1.882812 0.945312 -2.097656 0.925781 -2.5 C 0.90625 -2.773438 0.976562 -3.101562 1.128906 -3.476562 C 1.285156 -3.855469 1.496094 -4.183594 1.777344 -4.472656 C 2.046875 -4.761719 2.328125 -4.90625 2.609375 -4.90625 Z M 2.609375 -4.90625 "/></g></g></g><g fill="#e12c2c" fill-opacity="1"><g transform="translate(257.858968, 232.928656)"><g><path d="M 2.394531 -4.761719 C 2.269531 -4.761719 2.144531 -4.773438 2.019531 -4.792969 C 2.066406 -5.003906 2.136719 -5.195312 2.210938 -5.390625 C 2.289062 -5.574219 2.386719 -5.765625 2.5 -5.96875 C 2.617188 -6.171875 2.773438 -6.335938 2.945312 -6.460938 C 3.121094 -6.578125 3.3125 -6.644531 3.527344 -6.644531 C 3.738281 -6.644531 3.902344 -6.589844 4.027344 -6.480469 C 4.152344 -6.375 4.25 -6.183594 4.308594 -5.902344 C 4.675781 -6.058594 4.945312 -6.277344 5.109375 -6.558594 C 5.265625 -6.839844 5.351562 -7.121094 5.359375 -7.398438 C 5.359375 -7.882812 5.195312 -8.238281 4.867188 -8.480469 C 4.617188 -8.65625 4.269531 -8.742188 3.84375 -8.742188 C 3.488281 -8.742188 3.140625 -8.644531 2.8125 -8.472656 C 2.484375 -8.289062 2.242188 -8.046875 2.085938 -7.746094 L 2.058594 -7.746094 C 2.066406 -8.054688 1.988281 -8.308594 1.824219 -8.480469 C 1.652344 -8.65625 1.410156 -8.742188 1.089844 -8.742188 C 0.6875 -8.742188 0.375 -8.625 0.15625 -8.414062 C 0.628906 -7.738281 0.878906 -6.90625 0.898438 -5.921875 C 0.898438 -5.457031 0.839844 -4.703125 0.707031 -3.671875 C 0.695312 -3.613281 0.667969 -3.457031 0.628906 -3.199219 C 0.589844 -2.9375 0.558594 -2.761719 0.550781 -2.667969 C 0.539062 -2.570312 0.53125 -2.40625 0.511719 -2.183594 C 0.492188 -1.953125 0.484375 -1.777344 0.492188 -1.652344 C 0.503906 -1.515625 0.523438 -1.371094 0.558594 -1.207031 C 0.589844 -1.035156 0.636719 -0.890625 0.695312 -0.761719 C 0.964844 -0.164062 1.488281 0.125 2.25 0.125 C 2.867188 0.125 3.417969 -0.0585938 3.882812 -0.425781 C 4.347656 -0.792969 4.578125 -1.285156 4.578125 -1.902344 C 4.578125 -2.136719 4.511719 -2.355469 4.375 -2.550781 C 4.242188 -2.742188 4.078125 -2.867188 3.902344 -2.925781 C 3.757812 -2.617188 3.566406 -2.386719 3.3125 -2.210938 C 3.0625 -2.039062 2.839844 -1.960938 2.628906 -1.96875 C 2.375 -1.96875 2.183594 -2.097656 2.046875 -2.335938 C 1.914062 -2.570312 1.835938 -2.878906 1.824219 -3.265625 C 1.816406 -3.46875 1.835938 -3.738281 1.875 -4.066406 C 2.484375 -3.71875 2.964844 -3.554688 3.324219 -3.554688 C 3.410156 -3.554688 3.476562 -3.554688 3.515625 -3.566406 C 3.730469 -3.59375 3.894531 -3.679688 4.019531 -3.835938 C 4.144531 -3.980469 4.203125 -4.171875 4.203125 -4.40625 C 4.191406 -4.695312 4.039062 -4.996094 3.730469 -5.292969 C 3.417969 -4.9375 2.976562 -4.761719 2.394531 -4.761719 Z M 2.394531 -4.761719 "/></g></g></g><g fill="#e12c2c" fill-opacity="1"><g transform="translate(263.063804, 232.928656)"><g><path d="M 2.289062 -4.90625 C 2.492188 -4.886719 2.628906 -4.792969 2.703125 -4.597656 C 2.773438 -4.40625 2.773438 -4.191406 2.695312 -3.960938 C 3.003906 -3.960938 3.246094 -4.097656 3.417969 -4.367188 C 3.59375 -4.636719 3.679688 -4.9375 3.679688 -5.273438 C 3.671875 -5.757812 3.527344 -6.164062 3.246094 -6.472656 C 2.964844 -6.78125 2.570312 -6.925781 2.066406 -6.925781 C 1.546875 -6.917969 1.128906 -6.722656 0.820312 -6.347656 C 0.511719 -5.96875 0.355469 -5.515625 0.367188 -4.976562 C 0.367188 -4.28125 0.578125 -3.765625 1.015625 -3.457031 C 1.070312 -3.410156 1.148438 -3.363281 1.226562 -3.324219 C 1.304688 -3.273438 1.382812 -3.234375 1.4375 -3.214844 C 1.496094 -3.1875 1.585938 -3.148438 1.699219 -3.109375 C 1.816406 -3.0625 1.902344 -3.023438 1.980469 -2.996094 C 2.242188 -2.867188 2.386719 -2.722656 2.414062 -2.570312 C 2.433594 -2.355469 2.394531 -2.191406 2.28125 -2.078125 C 2.164062 -1.953125 2.007812 -1.894531 1.796875 -1.894531 L 1.730469 -1.894531 C 1.527344 -1.902344 1.390625 -2.007812 1.324219 -2.203125 C 1.253906 -2.394531 1.253906 -2.609375 1.332031 -2.839844 C 1.015625 -2.832031 0.761719 -2.683594 0.578125 -2.414062 C 0.394531 -2.144531 0.308594 -1.84375 0.328125 -1.527344 C 0.347656 -1.023438 0.492188 -0.628906 0.773438 -0.328125 C 1.054688 -0.0195312 1.449219 0.125 1.960938 0.125 C 2.472656 0.136719 2.886719 -0.0585938 3.199219 -0.464844 C 3.507812 -0.871094 3.652344 -1.351562 3.652344 -1.914062 C 3.652344 -2.5 3.457031 -2.945312 3.082031 -3.253906 C 2.945312 -3.351562 2.734375 -3.457031 2.433594 -3.582031 C 2.125 -3.710938 1.96875 -3.777344 1.953125 -3.785156 C 1.738281 -3.882812 1.621094 -4.046875 1.605469 -4.261719 C 1.585938 -4.453125 1.632812 -4.617188 1.75 -4.734375 C 1.863281 -4.847656 2.019531 -4.90625 2.222656 -4.90625 Z M 2.289062 -4.90625 "/></g></g></g><g fill="#e12c2c" fill-opacity="1"><g transform="translate(267.158163, 232.928656)"><g><path d="M 4.472656 -1.632812 C 4.472656 -2 4.386719 -2.308594 4.210938 -2.558594 C 4.027344 -2.8125 3.765625 -2.9375 3.417969 -2.9375 C 3.3125 -2.230469 3.070312 -1.882812 2.683594 -1.882812 C 2.539062 -1.882812 2.433594 -1.941406 2.367188 -2.058594 C 2.300781 -2.171875 2.261719 -2.320312 2.261719 -2.484375 C 2.242188 -3.042969 2.328125 -3.929688 2.519531 -5.140625 C 2.597656 -5.160156 2.667969 -5.167969 2.722656 -5.167969 C 2.9375 -5.167969 3.042969 -5.023438 3.0625 -4.734375 C 3.070312 -4.445312 2.996094 -4.222656 2.832031 -4.066406 C 2.984375 -4.027344 3.128906 -4.007812 3.265625 -4.007812 C 3.691406 -4.007812 4.039062 -4.152344 4.289062 -4.464844 C 4.539062 -4.773438 4.675781 -5.140625 4.683594 -5.5625 C 4.683594 -5.941406 4.597656 -6.230469 4.414062 -6.433594 C 4.230469 -6.625 4.007812 -6.734375 3.75 -6.734375 C 3.496094 -6.734375 3.253906 -6.644531 3.042969 -6.472656 C 2.832031 -6.296875 2.683594 -6.058594 2.609375 -5.757812 C 2.65625 -6.046875 2.714844 -6.328125 2.773438 -6.597656 C 2.832031 -6.867188 2.867188 -7.0625 2.886719 -7.1875 C 2.90625 -7.3125 2.925781 -7.4375 2.925781 -7.554688 C 2.925781 -7.855469 2.820312 -8.074219 2.617188 -8.210938 C 2.40625 -8.347656 2.152344 -8.421875 1.855469 -8.421875 C 1.621094 -8.421875 1.4375 -8.394531 1.304688 -8.355469 C 1.167969 -8.316406 0.984375 -8.230469 0.742188 -8.09375 C 0.917969 -7.941406 1.082031 -7.621094 1.238281 -7.148438 C 1.390625 -6.664062 1.476562 -6.210938 1.496094 -5.765625 C 1.226562 -5.804688 1.023438 -5.910156 0.890625 -6.066406 C 0.753906 -6.222656 0.589844 -6.472656 0.414062 -6.828125 C 0.078125 -6.480469 -0.0976562 -6.105469 -0.105469 -5.71875 C -0.125 -5.179688 0.0664062 -4.839844 0.453125 -4.714844 C 0.550781 -4.675781 0.636719 -4.664062 0.722656 -4.664062 C 0.925781 -4.664062 1.160156 -4.753906 1.410156 -4.925781 C 1.390625 -4.820312 1.324219 -4.40625 1.199219 -3.679688 C 1.0625 -2.945312 0.996094 -2.347656 0.976562 -1.882812 C 0.9375 -1.34375 1.023438 -0.898438 1.21875 -0.570312 C 1.476562 -0.105469 1.933594 0.125 2.578125 0.125 C 3.082031 0.125 3.527344 -0.0390625 3.902344 -0.375 C 4.269531 -0.707031 4.464844 -1.128906 4.472656 -1.632812 Z M 4.472656 -1.632812 "/></g></g></g><g fill="#e12c2c" fill-opacity="1"><g transform="translate(272.015374, 232.928656)"><g><path d="M 0.261719 -0.957031 C 0.261719 -0.609375 0.347656 -0.347656 0.539062 -0.15625 C 0.734375 0.0390625 1.003906 0.136719 1.351562 0.136719 C 1.699219 0.136719 1.96875 0.0390625 2.164062 -0.15625 C 2.355469 -0.347656 2.464844 -0.609375 2.464844 -0.957031 C 2.464844 -1.292969 2.355469 -1.554688 2.164062 -1.75 C 1.96875 -1.941406 1.699219 -2.039062 1.351562 -2.039062 C 1.003906 -2.039062 0.734375 -1.941406 0.539062 -1.75 C 0.347656 -1.554688 0.261719 -1.292969 0.261719 -0.957031 Z M 0.261719 -0.957031 "/></g></g></g><g fill="#e12c2c" fill-opacity="1"><g transform="translate(274.941315, 232.928656)"><g/></g></g><g fill="#e12c2c" fill-opacity="1"><g transform="translate(277.00785, 232.928656)"><g><path d="M 3.449219 -1.960938 L 3.410156 -1.960938 C 3.253906 -1.96875 3.167969 -2.046875 3.140625 -2.191406 C 3.109375 -2.328125 3.148438 -2.511719 3.253906 -2.742188 C 3.304688 -2.859375 3.363281 -2.964844 3.429688 -3.082031 C 3.488281 -3.199219 3.574219 -3.324219 3.671875 -3.46875 C 3.765625 -3.613281 3.835938 -3.71875 3.882812 -3.785156 C 3.921875 -3.84375 4.019531 -3.96875 4.152344 -4.152344 C 4.289062 -4.335938 4.355469 -4.445312 4.375 -4.464844 C 4.898438 -5.207031 5.160156 -5.96875 5.140625 -6.742188 C 5.109375 -7.410156 4.878906 -7.910156 4.445312 -8.238281 C 4.007812 -8.570312 3.449219 -8.742188 2.761719 -8.742188 C 2.117188 -8.742188 1.566406 -8.578125 1.101562 -8.269531 C 0.636719 -7.949219 0.386719 -7.488281 0.328125 -6.878906 C 0.289062 -6.492188 0.347656 -6.132812 0.523438 -5.804688 C 0.6875 -5.476562 0.957031 -5.253906 1.324219 -5.140625 C 1.34375 -5.59375 1.457031 -5.960938 1.679688 -6.230469 C 1.894531 -6.5 2.222656 -6.644531 2.648438 -6.644531 C 2.957031 -6.644531 3.199219 -6.550781 3.363281 -6.375 C 3.515625 -6.203125 3.59375 -5.988281 3.59375 -5.757812 C 3.59375 -5.429688 3.46875 -5.023438 3.234375 -4.539062 C 2.996094 -4.058594 2.683594 -3.554688 2.300781 -3.035156 C 1.914062 -2.511719 1.566406 -2.058594 1.246094 -1.671875 C 0.925781 -1.285156 0.617188 -0.917969 0.308594 -0.578125 C 0.523438 -0.117188 0.871094 0.117188 1.371094 0.117188 C 1.652344 0.117188 1.882812 0.0273438 2.058594 -0.144531 C 2.085938 -0.175781 2.117188 -0.203125 2.144531 -0.242188 C 2.164062 -0.28125 2.191406 -0.308594 2.210938 -0.347656 C 2.230469 -0.386719 2.25 -0.425781 2.269531 -0.484375 C 2.289062 -0.539062 2.300781 -0.578125 2.320312 -0.617188 C 2.328125 -0.65625 2.335938 -0.707031 2.355469 -0.773438 C 2.375 -0.839844 2.386719 -0.890625 2.394531 -0.917969 C 2.394531 -0.945312 2.40625 -1.003906 2.425781 -1.082031 C 2.433594 -1.160156 2.445312 -1.207031 2.445312 -1.226562 C 2.445312 -1.246094 2.453125 -1.304688 2.472656 -1.382812 C 2.484375 -1.457031 2.492188 -1.507812 2.492188 -1.527344 L 2.53125 -1.527344 C 2.570312 -0.425781 3.003906 0.125 3.855469 0.125 C 4.269531 0.125 4.597656 -0.0195312 4.839844 -0.328125 C 5.070312 -0.628906 5.207031 -0.996094 5.234375 -1.4375 C 5.253906 -1.84375 5.167969 -2.210938 4.964844 -2.539062 C 4.753906 -2.867188 4.492188 -3.0625 4.183594 -3.140625 C 4.203125 -2.886719 4.132812 -2.636719 3.988281 -2.367188 C 3.835938 -2.097656 3.660156 -1.960938 3.449219 -1.960938 Z M 3.449219 -1.960938 "/></g></g></g><g fill="#e12c2c" fill-opacity="1"><g transform="translate(282.714807, 232.928656)"><g><path d="M 2.636719 0.125 C 3.015625 0.125 3.34375 0.0273438 3.621094 -0.175781 C 3.902344 -0.367188 4.113281 -0.609375 4.269531 -0.898438 C 4.414062 -1.1875 4.53125 -1.527344 4.628906 -1.933594 C 4.722656 -2.335938 4.78125 -2.695312 4.800781 -3.015625 C 4.820312 -3.324219 4.839844 -3.660156 4.839844 -4.019531 C 4.839844 -5.410156 4.628906 -6.550781 4.210938 -7.417969 C 3.796875 -8.289062 3.246094 -8.722656 2.570312 -8.742188 C 2.25 -8.742188 1.96875 -8.675781 1.71875 -8.539062 C 1.46875 -8.402344 1.273438 -8.21875 1.121094 -7.988281 C 0.964844 -7.746094 0.832031 -7.496094 0.722656 -7.226562 C 0.617188 -6.957031 0.539062 -6.644531 0.492188 -6.316406 C 0.445312 -5.980469 0.414062 -5.679688 0.394531 -5.417969 C 0.375 -5.148438 0.367188 -4.878906 0.367188 -4.597656 C 0.367188 -3.199219 0.570312 -2.066406 0.984375 -1.199219 C 1.402344 -0.328125 1.953125 0.105469 2.636719 0.125 Z M 1.371094 -5.574219 C 1.402344 -5.902344 1.476562 -6.164062 1.613281 -6.355469 C 1.738281 -6.550781 1.921875 -6.644531 2.152344 -6.644531 C 2.472656 -6.644531 2.773438 -6.460938 3.050781 -6.09375 C 3.324219 -5.71875 3.535156 -5.273438 3.671875 -4.753906 C 3.804688 -4.230469 3.863281 -3.730469 3.84375 -3.265625 C 3.824219 -2.878906 3.75 -2.570312 3.613281 -2.335938 C 3.476562 -2.097656 3.285156 -1.96875 3.042969 -1.96875 C 2.734375 -1.96875 2.433594 -2.171875 2.152344 -2.578125 C 1.875 -2.984375 1.660156 -3.46875 1.527344 -4.027344 C 1.382812 -4.589844 1.332031 -5.109375 1.371094 -5.574219 Z M 1.371094 -5.574219 "/></g></g></g><g fill="#e12c2c" fill-opacity="1"><g transform="translate(288.161044, 232.928656)"><g><path d="M 3.449219 -1.960938 L 3.410156 -1.960938 C 3.253906 -1.96875 3.167969 -2.046875 3.140625 -2.191406 C 3.109375 -2.328125 3.148438 -2.511719 3.253906 -2.742188 C 3.304688 -2.859375 3.363281 -2.964844 3.429688 -3.082031 C 3.488281 -3.199219 3.574219 -3.324219 3.671875 -3.46875 C 3.765625 -3.613281 3.835938 -3.71875 3.882812 -3.785156 C 3.921875 -3.84375 4.019531 -3.96875 4.152344 -4.152344 C 4.289062 -4.335938 4.355469 -4.445312 4.375 -4.464844 C 4.898438 -5.207031 5.160156 -5.96875 5.140625 -6.742188 C 5.109375 -7.410156 4.878906 -7.910156 4.445312 -8.238281 C 4.007812 -8.570312 3.449219 -8.742188 2.761719 -8.742188 C 2.117188 -8.742188 1.566406 -8.578125 1.101562 -8.269531 C 0.636719 -7.949219 0.386719 -7.488281 0.328125 -6.878906 C 0.289062 -6.492188 0.347656 -6.132812 0.523438 -5.804688 C 0.6875 -5.476562 0.957031 -5.253906 1.324219 -5.140625 C 1.34375 -5.59375 1.457031 -5.960938 1.679688 -6.230469 C 1.894531 -6.5 2.222656 -6.644531 2.648438 -6.644531 C 2.957031 -6.644531 3.199219 -6.550781 3.363281 -6.375 C 3.515625 -6.203125 3.59375 -5.988281 3.59375 -5.757812 C 3.59375 -5.429688 3.46875 -5.023438 3.234375 -4.539062 C 2.996094 -4.058594 2.683594 -3.554688 2.300781 -3.035156 C 1.914062 -2.511719 1.566406 -2.058594 1.246094 -1.671875 C 0.925781 -1.285156 0.617188 -0.917969 0.308594 -0.578125 C 0.523438 -0.117188 0.871094 0.117188 1.371094 0.117188 C 1.652344 0.117188 1.882812 0.0273438 2.058594 -0.144531 C 2.085938 -0.175781 2.117188 -0.203125 2.144531 -0.242188 C 2.164062 -0.28125 2.191406 -0.308594 2.210938 -0.347656 C 2.230469 -0.386719 2.25 -0.425781 2.269531 -0.484375 C 2.289062 -0.539062 2.300781 -0.578125 2.320312 -0.617188 C 2.328125 -0.65625 2.335938 -0.707031 2.355469 -0.773438 C 2.375 -0.839844 2.386719 -0.890625 2.394531 -0.917969 C 2.394531 -0.945312 2.40625 -1.003906 2.425781 -1.082031 C 2.433594 -1.160156 2.445312 -1.207031 2.445312 -1.226562 C 2.445312 -1.246094 2.453125 -1.304688 2.472656 -1.382812 C 2.484375 -1.457031 2.492188 -1.507812 2.492188 -1.527344 L 2.53125 -1.527344 C 2.570312 -0.425781 3.003906 0.125 3.855469 0.125 C 4.269531 0.125 4.597656 -0.0195312 4.839844 -0.328125 C 5.070312 -0.628906 5.207031 -0.996094 5.234375 -1.4375 C 5.253906 -1.84375 5.167969 -2.210938 4.964844 -2.539062 C 4.753906 -2.867188 4.492188 -3.0625 4.183594 -3.140625 C 4.203125 -2.886719 4.132812 -2.636719 3.988281 -2.367188 C 3.835938 -2.097656 3.660156 -1.960938 3.449219 -1.960938 Z M 3.449219 -1.960938 "/></g></g></g><g fill="#e12c2c" fill-opacity="1"><g transform="translate(293.868, 232.928656)"><g><path d="M 2.636719 0.125 C 3.015625 0.125 3.34375 0.0273438 3.621094 -0.175781 C 3.902344 -0.367188 4.113281 -0.609375 4.269531 -0.898438 C 4.414062 -1.1875 4.53125 -1.527344 4.628906 -1.933594 C 4.722656 -2.335938 4.78125 -2.695312 4.800781 -3.015625 C 4.820312 -3.324219 4.839844 -3.660156 4.839844 -4.019531 C 4.839844 -5.410156 4.628906 -6.550781 4.210938 -7.417969 C 3.796875 -8.289062 3.246094 -8.722656 2.570312 -8.742188 C 2.25 -8.742188 1.96875 -8.675781 1.71875 -8.539062 C 1.46875 -8.402344 1.273438 -8.21875 1.121094 -7.988281 C 0.964844 -7.746094 0.832031 -7.496094 0.722656 -7.226562 C 0.617188 -6.957031 0.539062 -6.644531 0.492188 -6.316406 C 0.445312 -5.980469 0.414062 -5.679688 0.394531 -5.417969 C 0.375 -5.148438 0.367188 -4.878906 0.367188 -4.597656 C 0.367188 -3.199219 0.570312 -2.066406 0.984375 -1.199219 C 1.402344 -0.328125 1.953125 0.105469 2.636719 0.125 Z M 1.371094 -5.574219 C 1.402344 -5.902344 1.476562 -6.164062 1.613281 -6.355469 C 1.738281 -6.550781 1.921875 -6.644531 2.152344 -6.644531 C 2.472656 -6.644531 2.773438 -6.460938 3.050781 -6.09375 C 3.324219 -5.71875 3.535156 -5.273438 3.671875 -4.753906 C 3.804688 -4.230469 3.863281 -3.730469 3.84375 -3.265625 C 3.824219 -2.878906 3.75 -2.570312 3.613281 -2.335938 C 3.476562 -2.097656 3.285156 -1.96875 3.042969 -1.96875 C 2.734375 -1.96875 2.433594 -2.171875 2.152344 -2.578125 C 1.875 -2.984375 1.660156 -3.46875 1.527344 -4.027344 C 1.382812 -4.589844 1.332031 -5.109375 1.371094 -5.574219 Z M 1.371094 -5.574219 "/></g></g></g></svg>